<svg width="14" height="14" viewBox="0 0 14 14" fill="none" xmlns="http://www.w3.org/2000/svg">
<path d="M5.01083 7.88079L8.995 10.2025M8.98917 3.79746L5.01083 6.11913M12.25 2.91663C12.25 3.88312 11.4665 4.66663 10.5 4.66663C9.5335 4.66663 8.75 3.88312 8.75 2.91663C8.75 1.95013 9.5335 1.16663 10.5 1.16663C11.4665 1.16663 12.25 1.95013 12.25 2.91663ZM5.25 6.99996C5.25 7.96646 4.4665 8.74996 3.5 8.74996C2.5335 8.74996 1.75 7.96646 1.75 6.99996C1.75 6.03346 2.5335 5.24996 3.5 5.24996C4.4665 5.24996 5.25 6.03346 5.25 6.99996ZM12.25 11.0833C12.25 12.0498 11.4665 12.8333 10.5 12.8333C9.5335 12.8333 8.75 12.0498 8.75 11.0833C8.75 10.1168 9.5335 9.33329 10.5 9.33329C11.4665 9.33329 12.25 10.1168 12.25 11.0833Z" stroke="white" stroke-width="1.08333" stroke-linecap="round" stroke-linejoin="round"/>
</svg>
